<svg xmlns="http://www.w3.org/2000/svg" width="40" height="40" viewBox="0 0 40 40">
    <g fill="none" fill-rule="evenodd" stroke="#A0A8B8" stroke-linecap="round" stroke-linejoin="round">
        <path d="M.647 36.932h38.667V10.694H.647zM.647 10.694h38.667V5.17H.647z"/>
        <path d="M3.41 8.622a.69.69 0 1 0 0-1.38.69.69 0 0 0 0 1.38zM6.862 8.622a.69.69 0 1 0 0-1.38.69.69 0 0 0 0 1.38zM10.314 8.622a.69.69 0 1 0 0-1.38.69.69 0 0 0 0 1.38zM22.192 17.46L17.77 30.166M15.068 27.613l-6.749-4.146 6.749-4.145M24.97 19.322l6.749 4.146-6.749 4.146"/>
    </g>
</svg>
