<?xml version="1.0" encoding="UTF-8"?>
<svg width="35px" height="30px" viewBox="0 0 35 30" version="1.1" xmlns="http://www.w3.org/2000/svg" xmlns:xlink="http://www.w3.org/1999/xlink">
    <!-- Generator: Sketch 46.1 (44463) - http://www.bohemiancoding.com/sketch -->
    <title>ic-ios</title>
    <desc>Created with Sketch.</desc>
    <defs></defs>
    <g id="Live-Pages" stroke="none" stroke-width="1" fill="none" fill-rule="evenodd" stroke-linejoin="round">
        <g id="Dev-Center-3c" transform="translate(-714.000000, -563.000000)" stroke="#A0A8B8">
            <g id="ic-ios" transform="translate(714.000000, 563.000000)">
                <g id="Group-7" transform="translate(2.000000, 4.000000)">
                    <path d="M13.9983667,12.1803 C13.9728667,9.6503 16.1233667,8.43663333 16.2206444,8.37613333 C15.0108111,6.66013333 13.1266444,6.42455 12.4560889,6.39705 C10.8533667,6.23938333 9.32997778,7.3128 8.51492222,7.3128 C7.70458889,7.3128 6.44847778,6.41996667 5.12058889,6.44288333 C3.37242222,6.46946667 1.7612,7.42921667 0.861144444,8.94813333 C-0.953133333,12.0043 0.398366667,16.5344667 2.16731111,19.0149667 C3.03053333,20.2268 4.06186667,21.5908 5.41525556,21.5403833 C6.71953333,21.4908833 7.21158889,20.7227167 8.78692222,20.7227167 C10.3632,20.7227167 10.8052,21.5403833 12.1850333,21.5156333 C13.5865889,21.4908833 14.4762556,20.2799667 15.3338111,19.0626333 C16.3273667,17.6537167 16.7353667,16.2906333 16.7599222,16.2209667 C16.7287556,16.2072167 14.0257556,15.2016333 13.9983667,12.1803 L13.9983667,12.1803 Z" id="Stroke-81"></path>
                    <path d="M11.5745444,3.82515833 C12.3329333,2.932325 12.8448222,1.69390833 12.7050444,0.458241667 C11.6123222,0.501325 10.2891556,1.16315833 9.50526667,2.05415833 C8.80165556,2.84524167 8.18776667,4.10565833 8.3521,5.31749167 C9.57137778,5.40915833 10.8142667,4.71524167 11.5745444,3.82515833 L11.5745444,3.82515833 Z" id="Stroke-83"></path>
                </g>
            </g>
        </g>
    </g>
</svg>
