<?xml version="1.0" encoding="UTF-8"?>
<svg width="35px" height="30px" viewBox="0 0 35 30" version="1.1" xmlns="http://www.w3.org/2000/svg" xmlns:xlink="http://www.w3.org/1999/xlink">
    <!-- Generator: Sketch 46.1 (44463) - http://www.bohemiancoding.com/sketch -->
    <title>ic-precall</title>
    <desc>Created with Sketch.</desc>
    <defs></defs>
    <g id="Live-Pages" stroke="none" stroke-width="1" fill="none" fill-rule="evenodd" stroke-linecap="round" stroke-linejoin="round">
        <g id="Dev-Center-3c" transform="translate(-1053.000000, -648.000000)" stroke="#A0A8B8">
            <g id="ic-precall" transform="translate(1053.000000, 648.000000)">
                <g id="Group" transform="translate(1.000000, 3.000000)">
                    <path d="M23.5,12 C23.5,18.352 18.352,23.5 12,23.5 C5.648,23.5 0.5,18.352 0.5,12 C0.5,5.648 5.648,0.5 12,0.5 C18.352,0.5 23.5,5.648 23.5,12 L23.5,12 Z" id="Stroke-6836"></path>
                    <path d="M13.5,12 C13.5,12.828 12.828,13.5 12,13.5 C11.172,13.5 10.5,12.828 10.5,12 C10.5,11.172 11.172,10.5 12,10.5 C12.828,10.5 13.5,11.172 13.5,12 L13.5,12 Z" id="Stroke-6837"></path>
                    <path d="M13.0605,10.9395 L18.0095,5.9905" id="Stroke-6838"></path>
                    <path d="M2.4434,12.1855 L4.4434,12.1855" id="Stroke-6839"></path>
                    <path d="M3.2227,15.6348 L5.0707,14.8698" id="Stroke-6840"></path>
                    <path d="M20.7754,15.6357 L18.9284,14.8697" id="Stroke-6841"></path>
                    <path d="M21.499,12.001 L19.5,12" id="Stroke-6842"></path>
                    <path d="M20.7764,8.3652 L18.9284,9.1302" id="Stroke-6843"></path>
                    <path d="M15.6357,3.2236 L14.8697,5.0706" id="Stroke-6844"></path>
                    <path d="M11.9434,2.6855 L11.9434,4.6855" id="Stroke-6845"></path>
                    <path d="M8.3652,3.2227 L9.1302,5.0707" id="Stroke-6846"></path>
                    <path d="M5.2832,5.2822 L6.6962,6.6962" id="Stroke-6847"></path>
                    <path d="M3.2236,8.3643 L5.0706,9.1303" id="Stroke-6848"></path>
                </g>
            </g>
        </g>
    </g>
</svg>
