<?xml version="1.0" encoding="UTF-8"?>
<svg width="35px" height="30px" viewBox="0 0 35 30" version="1.1" xmlns="http://www.w3.org/2000/svg" xmlns:xlink="http://www.w3.org/1999/xlink">
    <!-- Generator: Sketch 46.1 (44463) - http://www.bohemiancoding.com/sketch -->
    <title>ic-tutorials</title>
    <desc>Created with Sketch.</desc>
    <defs></defs>
    <g id="Live-Pages" stroke="none" stroke-width="1" fill="none" fill-rule="evenodd" stroke-linecap="round" stroke-linejoin="round">
        <g id="Dev-Center-3c" transform="translate(-372.000000, -563.000000)" stroke="#A0A8B8">
            <g id="ic-tutorials" transform="translate(372.000000, 563.000000)">
                <g id="Group-6" transform="translate(1.000000, 10.000000)">
                    <path d="M11.6086727,4.9348125 C11.6086727,7.3160625 9.64358182,9.2460625 7.22030909,9.2460625 C4.79449091,9.2460625 2.83194545,7.3160625 2.83194545,4.9348125 C2.83194545,2.5548125 4.79449091,0.6248125 7.22030909,0.6248125 C9.64358182,0.6248125 11.6086727,2.5548125 11.6086727,4.9348125 Z" id="Stroke-1"></path>
                    <path d="M23.8959636,4.9348125 C23.8959636,7.3160625 21.9321455,9.2460625 19.5076,9.2460625 C17.0830545,9.2460625 15.1192364,7.3160625 15.1192364,4.9348125 C15.1192364,2.5548125 17.0830545,0.6248125 19.5076,0.6248125 C21.9321455,0.6248125 23.8959636,2.5548125 23.8959636,4.9348125 Z" id="Stroke-3"></path>
                    <path d="M11.6086727,4.9348125 C11.6086727,3.9823125 12.3939455,3.2110625 13.3637636,3.2110625 C14.3335818,3.2110625 15.1188545,3.9823125 15.1188545,4.9348125" id="Stroke-5"></path>
                    <path d="M0.636363636,4.9348125 C0.636363636,3.9548125 0.859090909,3.0248125 1.25618182,2.1935625" id="Stroke-7"></path>
                    <path d="M26.0909091,4.9348125 C26.0909091,3.9548125 25.8681818,3.0248125 25.4710909,2.1935625" id="Stroke-9"></path>
                </g>
            </g>
        </g>
    </g>
</svg>
